<mxfile host="app.diagrams.net" modified="2021-11-26T04:34:30.548Z" agent="5.0 (Windows NT 10.0; Win64; x64) AppleWebKit/537.36 (KHTML, like Gecko) Chrome/96.0.4664.45 Safari/537.36" etag="bSrpOCb4s6lcF8XJcH9Y" version="15.5.9" type="github">
  <diagram id="CSqjVIoC4Ax337QR1o9f" name="Page-1">
    <mxGraphModel dx="782" dy="752" grid="1" gridSize="10" guides="1" tooltips="1" connect="1" arrows="1" fold="1" page="1" pageScale="1" pageWidth="827" pageHeight="1169" math="0" shadow="0">
      <root>
        <mxCell id="0" />
        <mxCell id="1" parent="0" />
        <mxCell id="X6rGkDSXdsuDlUaDDc0L-1" value="Comunidad Autonoma" style="rounded=0;whiteSpace=wrap;html=1;strokeWidth=3;fontSize=14;" vertex="1" parent="1">
          <mxGeometry x="190" y="225" width="120" height="40" as="geometry" />
        </mxCell>
        <mxCell id="X6rGkDSXdsuDlUaDDc0L-3" value="Parques Naturales" style="rounded=0;whiteSpace=wrap;html=1;fontSize=14;strokeWidth=3;" vertex="1" parent="1">
          <mxGeometry x="350" y="300" width="100" height="50" as="geometry" />
        </mxCell>
        <mxCell id="X6rGkDSXdsuDlUaDDc0L-4" value="Organismo responsable" style="rounded=0;whiteSpace=wrap;html=1;fontSize=14;strokeWidth=3;" vertex="1" parent="1">
          <mxGeometry x="190" y="310" width="100" height="50" as="geometry" />
        </mxCell>
        <mxCell id="X6rGkDSXdsuDlUaDDc0L-12" value="" style="edgeStyle=none;rounded=0;orthogonalLoop=1;jettySize=auto;html=1;fontSize=14;endArrow=none;endFill=0;" edge="1" parent="1" source="X6rGkDSXdsuDlUaDDc0L-10" target="X6rGkDSXdsuDlUaDDc0L-3">
          <mxGeometry relative="1" as="geometry" />
        </mxCell>
        <mxCell id="X6rGkDSXdsuDlUaDDc0L-10" value="" style="rhombus;whiteSpace=wrap;html=1;fontSize=14;strokeWidth=3;" vertex="1" parent="1">
          <mxGeometry x="370" y="220" width="60" height="50" as="geometry" />
        </mxCell>
        <mxCell id="X6rGkDSXdsuDlUaDDc0L-24" value="" style="edgeStyle=none;rounded=0;orthogonalLoop=1;jettySize=auto;html=1;fontSize=14;endArrow=none;endFill=0;" edge="1" parent="1" source="X6rGkDSXdsuDlUaDDc0L-19" target="X6rGkDSXdsuDlUaDDc0L-3">
          <mxGeometry relative="1" as="geometry" />
        </mxCell>
        <mxCell id="X6rGkDSXdsuDlUaDDc0L-19" value="ID_Parque" style="ellipse;whiteSpace=wrap;html=1;fontSize=14;strokeWidth=3;" vertex="1" parent="1">
          <mxGeometry x="350" y="420" width="100" height="50" as="geometry" />
        </mxCell>
        <mxCell id="X6rGkDSXdsuDlUaDDc0L-26" value="" style="edgeStyle=none;rounded=0;orthogonalLoop=1;jettySize=auto;html=1;fontSize=14;endArrow=none;endFill=0;" edge="1" parent="1" source="X6rGkDSXdsuDlUaDDc0L-20" target="X6rGkDSXdsuDlUaDDc0L-25">
          <mxGeometry relative="1" as="geometry" />
        </mxCell>
        <mxCell id="X6rGkDSXdsuDlUaDDc0L-20" value="Nombre" style="ellipse;whiteSpace=wrap;html=1;fontSize=14;strokeWidth=3;" vertex="1" parent="1">
          <mxGeometry x="770" y="270" width="100" height="50" as="geometry" />
        </mxCell>
        <mxCell id="X6rGkDSXdsuDlUaDDc0L-27" value="" style="edgeStyle=none;rounded=0;orthogonalLoop=1;jettySize=auto;html=1;fontSize=14;endArrow=none;endFill=0;" edge="1" parent="1" source="X6rGkDSXdsuDlUaDDc0L-21" target="X6rGkDSXdsuDlUaDDc0L-25">
          <mxGeometry relative="1" as="geometry" />
        </mxCell>
        <mxCell id="X6rGkDSXdsuDlUaDDc0L-21" value="Extensión&amp;nbsp;" style="ellipse;whiteSpace=wrap;html=1;fontSize=14;strokeWidth=3;" vertex="1" parent="1">
          <mxGeometry x="770" y="350" width="100" height="50" as="geometry" />
        </mxCell>
        <mxCell id="X6rGkDSXdsuDlUaDDc0L-25" value="Áreas" style="rounded=0;whiteSpace=wrap;html=1;fontSize=14;strokeWidth=3;" vertex="1" parent="1">
          <mxGeometry x="610" y="300" width="100" height="50" as="geometry" />
        </mxCell>
        <mxCell id="X6rGkDSXdsuDlUaDDc0L-29" value="" style="edgeStyle=none;rounded=0;orthogonalLoop=1;jettySize=auto;html=1;fontSize=14;endArrow=none;endFill=0;" edge="1" parent="1" source="X6rGkDSXdsuDlUaDDc0L-28" target="X6rGkDSXdsuDlUaDDc0L-25">
          <mxGeometry relative="1" as="geometry" />
        </mxCell>
        <mxCell id="X6rGkDSXdsuDlUaDDc0L-28" value="ID_Área" style="ellipse;whiteSpace=wrap;html=1;fontSize=14;strokeWidth=3;" vertex="1" parent="1">
          <mxGeometry x="770" y="200" width="100" height="50" as="geometry" />
        </mxCell>
        <mxCell id="X6rGkDSXdsuDlUaDDc0L-34" value="" style="edgeStyle=none;rounded=0;orthogonalLoop=1;jettySize=auto;html=1;fontSize=14;endArrow=none;endFill=0;" edge="1" parent="1" source="X6rGkDSXdsuDlUaDDc0L-30" target="X6rGkDSXdsuDlUaDDc0L-33">
          <mxGeometry relative="1" as="geometry" />
        </mxCell>
        <mxCell id="X6rGkDSXdsuDlUaDDc0L-30" value="Especies" style="rounded=0;whiteSpace=wrap;html=1;fontSize=14;strokeWidth=3;" vertex="1" parent="1">
          <mxGeometry x="610" y="480" width="100" height="50" as="geometry" />
        </mxCell>
        <mxCell id="X6rGkDSXdsuDlUaDDc0L-32" value="" style="edgeStyle=none;rounded=0;orthogonalLoop=1;jettySize=auto;html=1;fontSize=14;endArrow=none;endFill=0;" edge="1" parent="1" source="X6rGkDSXdsuDlUaDDc0L-31" target="X6rGkDSXdsuDlUaDDc0L-30">
          <mxGeometry relative="1" as="geometry" />
        </mxCell>
        <mxCell id="X6rGkDSXdsuDlUaDDc0L-31" value="Denominación científica" style="ellipse;whiteSpace=wrap;html=1;fontSize=14;strokeWidth=3;" vertex="1" parent="1">
          <mxGeometry x="750" y="470" width="120" height="70" as="geometry" />
        </mxCell>
        <mxCell id="X6rGkDSXdsuDlUaDDc0L-35" value="" style="edgeStyle=none;rounded=0;orthogonalLoop=1;jettySize=auto;html=1;fontSize=14;endArrow=none;endFill=0;" edge="1" parent="1" source="X6rGkDSXdsuDlUaDDc0L-33" target="X6rGkDSXdsuDlUaDDc0L-25">
          <mxGeometry relative="1" as="geometry" />
        </mxCell>
        <mxCell id="X6rGkDSXdsuDlUaDDc0L-33" value="residen" style="rhombus;whiteSpace=wrap;html=1;fontSize=14;strokeWidth=3;" vertex="1" parent="1">
          <mxGeometry x="620" y="390" width="80" height="50" as="geometry" />
        </mxCell>
        <mxCell id="X6rGkDSXdsuDlUaDDc0L-37" value="" style="edgeStyle=none;rounded=0;orthogonalLoop=1;jettySize=auto;html=1;fontSize=14;endArrow=none;endFill=0;" edge="1" parent="1" source="X6rGkDSXdsuDlUaDDc0L-36" target="X6rGkDSXdsuDlUaDDc0L-30">
          <mxGeometry relative="1" as="geometry" />
        </mxCell>
        <mxCell id="X6rGkDSXdsuDlUaDDc0L-36" value="Denominación vulgar" style="ellipse;whiteSpace=wrap;html=1;fontSize=14;strokeWidth=3;" vertex="1" parent="1">
          <mxGeometry x="740" y="550" width="120" height="70" as="geometry" />
        </mxCell>
        <mxCell id="X6rGkDSXdsuDlUaDDc0L-39" value="" style="edgeStyle=none;rounded=0;orthogonalLoop=1;jettySize=auto;html=1;fontSize=14;endArrow=none;endFill=0;" edge="1" parent="1" source="X6rGkDSXdsuDlUaDDc0L-38" target="X6rGkDSXdsuDlUaDDc0L-30">
          <mxGeometry relative="1" as="geometry" />
        </mxCell>
        <mxCell id="X6rGkDSXdsuDlUaDDc0L-38" value="Individuos por área&amp;nbsp;" style="ellipse;whiteSpace=wrap;html=1;fontSize=14;strokeWidth=3;" vertex="1" parent="1">
          <mxGeometry x="680" y="620" width="120" height="70" as="geometry" />
        </mxCell>
        <mxCell id="X6rGkDSXdsuDlUaDDc0L-40" value="" style="rhombus;whiteSpace=wrap;html=1;fontSize=14;strokeWidth=3;" vertex="1" parent="1">
          <mxGeometry x="510" y="300" width="60" height="50" as="geometry" />
        </mxCell>
      </root>
    </mxGraphModel>
  </diagram>
</mxfile>
